<?xml version="1.0" encoding="utf-8"?>
<!-- CAIXA chapada negativa (copied from public/images) -->
<svg version="1.1" id="Layer_1" xmlns="http://www.w3.org/2000/svg" xmlns:xlink="http://www.w3.org/1999/xlink" x="0px" y="0px"
     viewBox="0 0 566.9 425.2" style="enable-background:new 0 0 566.9 425.2;" xml:space="preserve">
<style type="text/css">
    .st0{fill-rule:evenodd;clip-rule:evenodd;fill:#F39200;}
    .st1{fill-rule:evenodd;clip-rule:evenodd;fill:#FFFFFF;}
</style>
<g id="Camada_x0020_1">
    <g id="_2980235132992">
        <polygon class="st0" points="283.9,255.8 321.8,255.8 363.3,214.3 325.4,214.3 		"/>
        <polygon class="st0" points="371.1,168.6 354.7,185 367.5,210.1 409,168.6 		"/>
        <polygon class="st1" points="264.9,168.6 296.5,168.6 282.7,255.8 251.1,255.8 		"/>
        <path class="st1" d="M208.6,224.3l-1.6-16c-0.4-3.8-0.2-9.4-0.1-13.5h-1.3l-10.9,29.5h13.6H208.6z M182.4,255.8h-33.5l44.1-87.2
            h35l17.3,87.2h-33.5l-1.2-10.9h-24L182.4,255.8z"/>
        <polygon class="st1" points="308.5,168.6 346.3,168.6 367.5,210.1 329.6,210.1 		"/>
        <path class="st1" d="M445.3,224.3l-1.6-16c-0.3-3.8-0.2-9.4-0.1-13.5h-1.3l-10.9,29.5H445H445.3z M419,255.8h-33.4l44.1-87.2h35
            l17.3,87.2h-33.5l-1.2-10.9h-24L419,255.8z"/>
        <path class="st1" d="M153.8,204c-4.3-4.7-10-8.8-17.2-8.8c-9.5,0-18.4,7.5-19.9,17c-1.5,9.6,5.5,17,15,17c7.3,0,13.5-3.1,19.4-8.1
            l-6.1,32.6c-5.5,2.4-17.4,3.4-23.1,3.4c-24.8,0-41.2-19.3-37.3-44.1c4-25.5,27.2-45.8,52.8-45.8c7.2,0,14.4,1.3,20.7,3.6
            L153.8,204z"/>
        <polygon class="st1" points="338.2,239.4 363.3,214.3 384.4,255.8 346.6,255.8 		"/>
    </g>
</g>
</svg>
